<?xml version="1.0" encoding="iso-8859-1"?>
<!-- Generator: Adobe Illustrator 19.0.0, SVG Export Plug-In . SVG Version: 6.00 Build 0)  -->
<svg version="1.1" id="Capa_1" xmlns="http://www.w3.org/2000/svg" xmlns:xlink="http://www.w3.org/1999/xlink" x="0px" y="0px"
	 viewBox="0 0 428.098 428.098" style="enable-background:new 0 0 428.098 428.098;" xml:space="preserve">
<g>
	<g>
		<path d="M417.776,93.034l-125.92-50.64c-4.087-1.648-8.737,0.319-10.4,4.4l-14,34.88c-3.162-2.977-6.852-5.338-10.88-6.96
			c-18.115-7.312-38.728,1.445-46.04,19.56s1.445,38.728,19.56,46.04c4.021,1.611,8.309,2.453,12.64,2.48l-14,34.88
			c-1.648,4.087,0.319,8.737,4.4,10.4l50.56,20.32c3.998,1.88,8.764,0.163,10.644-3.836c1.094-2.326,1.003-5.036-0.244-7.284
			c-4.879-9.464-1.162-21.092,8.302-25.971s21.092-1.162,25.971,8.302c2.561,4.967,2.84,10.8,0.767,15.989
			c-2.273,5.176-6.728,9.074-12.16,10.64c-4.201,1.368-6.497,5.883-5.129,10.084c0.736,2.261,2.44,4.077,4.649,4.956l50.56,20.32
			c0.942,0.372,1.947,0.563,2.96,0.56c3.278,0.003,6.227-1.994,7.44-5.04l49.44-122.56
			C430.301,106.093,426.223,96.472,417.776,93.034z M412.096,108.554l-46.48,115.52l-28.96-11.6c3.016-3.178,5.404-6.896,7.04-10.96
			c7.034-18.218-2.032-38.689-20.25-45.723c-17.855-6.894-37.954,1.67-45.35,19.323c-1.618,4.047-2.459,8.362-2.48,12.72
			l-28.96-11.6l16.72-41.52c1.649-4.099-0.337-8.759-4.436-10.408c-2.169-0.873-4.611-0.753-6.684,0.328
			c-9.483,4.844-21.096,1.083-25.94-8.399c-2.475-4.846-2.788-10.512-0.86-15.601c3.904-9.859,15.061-14.686,24.92-10.782
			c5.287,2.094,9.374,6.423,11.159,11.822c1.071,3.176,4.009,5.348,7.36,5.44c3.48,0.244,6.718-1.795,8-5.04l16.72-41.6l118.48,48
			l2.96-7.44L412.096,108.554z"/>
	</g>
</g>
<g>
	<g>
		<path d="M201.171,35.36c-0.012-0.002-0.023-0.004-0.035-0.007l-130.08-24.4c-8.986-1.705-17.652,4.197-19.357,13.183
			c-0.001,0.006-0.002,0.012-0.003,0.017l-25.36,133.28c-0.825,4.341,2.024,8.528,6.365,9.353c0.012,0.002,0.023,0.004,0.035,0.007
			l36.96,7.04c-2.309,3.67-3.91,7.74-4.72,12c-3.699,19.175,8.848,37.718,28.023,41.417c19.175,3.699,37.718-8.848,41.417-28.023
			c0.853-4.424,0.853-8.97,0-13.394l36.96,7.04c4.341,0.825,8.528-2.024,9.353-6.365c0.002-0.012,0.004-0.023,0.007-0.035
			l10.16-53.52c1.011-4.301-1.657-8.607-5.958-9.618c-2.433-0.572-4.994,0.027-6.922,1.618c-4.449,3.694-10.336,5.166-16,4
			c-10.445-2.285-17.06-12.605-14.775-23.05c1.032-4.719,3.791-8.881,7.735-11.67l0,0c8.752-5.987,20.7-3.745,26.687,5.007
			c0.326,0.477,0.631,0.968,0.913,1.473c2.196,3.834,7.085,5.161,10.918,2.964c2.027-1.161,3.444-3.15,3.882-5.444l10.16-53.52
			C208.361,40.373,205.512,36.185,201.171,35.36z M184.256,80.554c-3.694-2.32-7.792-3.921-12.08-4.72
			c-19.184-3.653-37.697,8.938-41.35,28.122c-1.756,9.22,0.227,18.76,5.51,26.518l0.32-0.32c5.253,7.788,13.407,13.148,22.64,14.88
			c4.282,0.813,8.678,0.813,12.96,0l-6.16,30.88l-44.08-8c-4.301-1.011-8.607,1.657-9.618,5.958
			c-0.572,2.433,0.027,4.994,1.618,6.922c3.694,4.449,5.166,10.336,4,16c-2.488,10.399-12.935,16.811-23.334,14.323
			c-9.705-2.322-16.055-11.641-14.666-21.523c1.054-5.533,4.513-10.311,9.44-13.04c3.834-2.197,5.161-7.085,2.964-10.919
			c-1.161-2.026-3.15-3.444-5.444-3.881l-44-8l24-125.44l-8-1.52l8.48,1.04l122.64,22.08L184.256,80.554z"/>
	</g>
</g>
<g>
	<g>
		<path d="M203.439,316.901c-3.488-2.42-7.385-4.191-11.503-5.227l-0.16,0.32c-4.21-1.046-8.58-1.291-12.88-0.72l9.04-36.48
			c1.057-4.285-1.556-8.617-5.84-9.68l-52.8-13.12c-4.296-1.033-8.616,1.612-9.648,5.908c-0.539,2.243-0.084,4.609,1.248,6.492
			c3.403,4.588,4.577,10.456,3.2,16c-2.511,10.393-12.971,16.783-23.365,14.273c-10.393-2.511-16.783-12.971-14.273-23.365
			c1.35-5.59,5.116-10.291,10.277-12.828c3.964-1.951,5.596-6.747,3.644-10.711c-1.053-2.139-3.005-3.697-5.324-4.249l-52.88-13.28
			c-4.285-1.057-8.617,1.556-9.68,5.84l-32,128.64c-2.213,8.874,3.187,17.862,12.061,20.075c0.006,0.002,0.013,0.003,0.019,0.005
			l131.68,32.64h1.92c3.766,0.11,7.097-2.423,8-6.08l9.04-36.48c16.009,11.107,37.991,7.134,49.098-8.875
			C223.421,349.99,219.447,328.008,203.439,316.901z M202.096,351.034l-0.08-0.08c-2.456,10.316-12.809,16.687-23.125,14.231
			c-5.579-1.328-10.272-5.081-12.795-10.231c-2.01-3.934-6.83-5.494-10.764-3.484c-2.052,1.048-3.552,2.93-4.116,5.164l-10.8,43.52
			l-123.92-30.8l-1.92,8l1.52-8.4l30-121.12l30.24,7.52c-2.537,3.543-4.382,7.533-5.44,11.76c-4.705,18.954,6.846,38.135,25.8,42.84
			c18.954,4.706,38.135-6.846,42.84-25.8c1.053-4.236,1.297-8.633,0.72-12.96l30.24,7.52l-10.72,43.52
			c-1.086,4.283,1.505,8.635,5.787,9.721c2.28,0.578,4.698,0.124,6.613-1.241c8.558-6.261,20.572-4.398,26.832,4.161
			C202.41,339.525,203.544,345.457,202.096,351.034z"/>
	</g>
</g>
<g>
</g>
<g>
</g>
<g>
</g>
<g>
</g>
<g>
</g>
<g>
</g>
<g>
</g>
<g>
</g>
<g>
</g>
<g>
</g>
<g>
</g>
<g>
</g>
<g>
</g>
<g>
</g>
<g>
</g>
</svg>
